<svg width="742" height="356" viewBox="0 0 742 356" fill="none" xmlns="http://www.w3.org/2000/svg">
<g filter="url(#filter0_d_16_206)">
<path d="M4 8C4 3.58172 7.58172 0 12 0H730C734.418 0 738 3.58172 738 8V340C738 344.418 734.418 348 730 348H12C7.58172 348 4 344.418 4 340V8Z" fill="white"/>
</g>
<path d="M4 263.139L43.1533 173.627L115.017 105.877L165.569 235.218L206.209 173.627L290.463 199.085L335.068 173.627L383.142 112.281L453.062 139.78L510.248 130.613L545.703 209.35L624.619 112.281L681.805 286.443L738 243.43" stroke="#222222"/>
<line x1="4" y1="201.406" x2="738" y2="201.406" stroke="black" stroke-opacity="0.5"/>
<line x1="4" y1="247.368" x2="738" y2="247.368" stroke="black" stroke-opacity="0.5"/>
<line x1="4" y1="293.33" x2="738" y2="293.33" stroke="black" stroke-opacity="0.5"/>
<line x1="4" y1="101.274" x2="738" y2="101.274" stroke="black" stroke-opacity="0.5"/>
<line x1="4" y1="52.8491" x2="738" y2="52.8491" stroke="black" stroke-opacity="0.5"/>
<line x1="4" y1="149.698" x2="738" y2="149.698" stroke="black" stroke-opacity="0.5"/>
<defs>
<filter id="filter0_d_16_206" x="0" y="0" width="742" height="356" filterUnits="userSpaceOnUse" color-interpolation-filters="sRGB">
<feFlood flood-opacity="0" result="BackgroundImageFix"/>
<feColorMatrix in="SourceAlpha" type="matrix" values="0 0 0 0 0 0 0 0 0 0 0 0 0 0 0 0 0 0 127 0" result="hardAlpha"/>
<feOffset dy="4"/>
<feGaussianBlur stdDeviation="2"/>
<feComposite in2="hardAlpha" operator="out"/>
<feColorMatrix type="matrix" values="0 0 0 0 0 0 0 0 0 0 0 0 0 0 0 0 0 0 0.25 0"/>
<feBlend mode="normal" in2="BackgroundImageFix" result="effect1_dropShadow_16_206"/>
<feBlend mode="normal" in="SourceGraphic" in2="effect1_dropShadow_16_206" result="shape"/>
</filter>
</defs>
</svg>
