<svg width="28" height="28" viewBox="0 0 28 28" fill="none" xmlns="http://www.w3.org/2000/svg">
<g clip-path="url(#clip0_5_922)">
<path d="M8.04007 12.3797C8.93662 12.3797 9.77678 12.1091 10.476 11.6467L12.9457 14.1221C13.1092 14.28 13.3178 14.3589 13.5434 14.3589C14.0114 14.3589 14.3554 13.9924 14.3554 13.53C14.3554 13.3158 14.282 13.1071 14.1242 12.9493L11.6714 10.4852C12.1788 9.76342 12.4777 8.88943 12.4777 7.94214C12.4777 5.50061 10.4816 3.50453 8.04007 3.50453C5.60418 3.50453 3.60246 5.50061 3.60246 7.94214C3.60246 10.3837 5.59854 12.3797 8.04007 12.3797ZM8.04007 11.1956C6.25263 11.1956 4.78658 9.72959 4.78658 7.94214C4.78658 6.15469 6.25263 4.68864 8.04007 4.68864C9.82752 4.68864 11.2936 6.15469 11.2936 7.94214C11.2936 9.72959 9.82752 11.1956 8.04007 11.1956Z" fill="#3C3C43" fill-opacity="0.6"/>
</g>
<defs>
<clipPath id="clip0_5_922">
<rect width="28" height="28" fill="white"/>
</clipPath>
</defs>
</svg>
